<svg xmlns="http://www.w3.org/2000/svg" width="211.661" height="49.404" viewBox="0 0 211.661 49.404">
    <defs>
        <style>.a{fill:#fff;}.b{fill:#ed0000;}</style>
    </defs>
    <g transform="translate(-244.079 -15)">
        <path class="a" d="M-1901.27,20.87v-.56c0-12.43,9.229-20.271,20.9-20.271,10.57,0,19.65,6.071,19.65,20V23.51h-27.18c.37,5.11,3.32,8.07,8.051,8.07,4.36,0,6.21-2,6.719-4.59h12.41c-1.18,8.73-7.9,13.69-19.57,13.69C-1892.41,40.62-1901.27,33.52-1901.27,20.87Zm13.52-4.89h14.18c-.22-4.66-2.51-7.25-6.8-7.25C-1884.37,8.73-1887.09,11.32-1887.75,15.98ZM-1990,20.87v-.56C-1990,7.88-1980.76.04-1968.8.04s21.06,7.62,21.06,19.9v.6c0,12.57-9.24,20.12-21.13,20.12S-1990,33.37-1990,20.87Zm13.52-.96v.6c0,6.65,2.59,10.28,7.681,10.28s7.609-3.71,7.609-10.15V20.05c0-6.511-2.58-10.14-7.609-10.14S-1976.48,13.39-1976.48,19.91Zm57.71,19.82V17.24c0-4.37-1.7-6.511-5.539-6.511s-6.57,2.371-6.57,7.321V39.73h-13.22V1.04h13.22V7.25c2.07-4,6.28-7.25,12.7-7.25,7.47,0,12.64,4.66,12.64,14.58V39.73Z" transform="translate(2316.46 19.69)"/>
        <g transform="translate(244.079 15)">
            <path class="b" d="M150.65,750.623a1.7,1.7,0,0,0,1.95-1.95c0-1.182-.591-1.773-1.95-1.773s-1.95.591-1.95,1.773A1.7,1.7,0,0,0,150.65,750.623Z" transform="translate(-102.015 -732.953)"/>
            <path class="b" d="M151.191,761.9H149.3v3.546h1.891c1.064,0,1.477-.709,1.477-1.891C152.668,762.432,152.2,761.9,151.191,761.9Z" transform="translate(-102.26 -739.089)"/>
            <path class="b" d="M75.255,749.993a3.786,3.786,0,0,1-.827-1.773,2.356,2.356,0,0,1,.414-1.418l15.6-21.57a1.2,1.2,0,0,0-1-1.832H73.246a3.659,3.659,0,0,0-3.546,3.664V769.14a3.569,3.569,0,0,0,3.546,3.6H89.379a1.185,1.185,0,0,0,1.182-1.182,1.925,1.925,0,0,0-.236-.768Z" transform="translate(-69.7 -723.341)"/>
            <path class="b" d="M150.1,779.159h2.187l-1.064-2.659Z" transform="translate(-102.587 -745.061)"/>
            <path class="b" d="M127.426,723.3H111.352a5.082,5.082,0,0,0-3.6,1.714l-26.77,22.693a.67.67,0,0,0-.177.473.787.787,0,0,0,.177.473l27.479,22.988a4.537,4.537,0,0,0,2.9,1h16.015a3.582,3.582,0,0,0,3.6-3.6V726.964A3.659,3.659,0,0,0,127.426,723.3Zm-7.742,4.137h1.536v2.778l2.718-2.778h2.127l-3.073,3.014,3.191,3.014h-2.127l-2.777-2.718v2.718h-1.536v-6.028Zm3.191,8.51c2.246,0,3.487,1,3.487,3.073,0,2.009-1.182,3.25-3.487,3.25s-3.487-1.241-3.487-3.25S120.63,735.947,122.876,735.947Zm3.309,11.819c0,1.95-.886,3.132-3.014,3.132h-3.428v-6.087h3.428C125.3,744.811,126.185,745.815,126.185,747.766Zm-2.127,20.565-2.777-2.718v2.718h-1.536V762.3h1.536v2.778L124,762.3h2.009l-2.955,3.014,3.191,3.014Zm.768-8.687-.414-1.063H121.34l-.414,1.063h-1.6l2.6-6.087h2.009l2.6,6.087Z" transform="translate(-74.24 -723.3)"/>
        </g>
    </g>
</svg>